<!-- GitHub -->
<svg width="44" height="44" viewBox="0 0 44 44" fill="none" xmlns="http://www.w3.org/2000/svg">
  <rect x="1" y="1" width="42" height="42" rx="14" fill="#0E141C" stroke="#223043"/>
  <path fill="#ECF1F8" d="M22 11.5C16.2 11.5 11.5 16.2 11.5 22c0 4.6 3 8.5 7.1 9.9.5.1.7-.2.7-.5v-2c-2.9.6-3.5-1.2-3.5-1.2-.5-1.2-1.1-1.5-1.1-1.5-.9-.6.1-.6.1-.6 1 0 1.6 1.1 1.6 1.1.9 1.6 2.4 1.1 3 .9.1-.7.4-1.1.7-1.4-2.3-.3-4.7-1.2-4.7-5.2 0-1.1.4-2.1 1.1-2.8-.1-.3-.5-1.4.1-2.8 0 0 .9-.3 2.9 1.1.8-.2 1.7-.3 2.6-.3s1.8.1 2.6.3c2-1.4 2.9-1.1 2.9-1.1.6 1.4.2 2.5.1 2.8.7.8 1.1 1.7 1.1 2.8 0 4-2.4 4.9-4.7 5.2.4.3.8 1 .8 2.1v3.1c0 .3.2.6.8.5 4.1-1.4 7.1-5.3 7.1-9.9 0-5.8-4.7-10.5-10.5-10.5Z"/>
</svg>